<?xml version="1.0" encoding="utf-8"?>
<!-- Generator: Adobe Illustrator 22.0.0, SVG Export Plug-In . SVG Version: 6.00 Build 0)  -->
<svg version="1.1" id="Layer_1" xmlns="http://www.w3.org/2000/svg" xmlns:xlink="http://www.w3.org/1999/xlink" x="0px" y="0px"
	 viewBox="0 0 400 512" style="enable-background:new 0 0 400 512;" xml:space="preserve">
<style type="text/css">
	.st0{fill:#454545;}
</style>
<path class="st0" d="M330,452c-5.5,0-10,4.5-10,10s4.5,10,10,10s10-4.5,10-10S335.5,452,330,452z"/>
<path class="st0" d="M150,226c13,0,24.2-8.4,28.3-20H200v136c0,16.6,13.4,30,30,30c16.5,0,30-13.5,30-30V206h21.7
	c4.1,11.6,15.2,20,28.3,20c16.5,0,30-13.5,30-30V96c0-16.6-13.4-30-30-30c-13,0-24.2,8.4-28.3,20H178.3c-4-11.4-15-20-28.3-20
	c-16.5,0-30,13.5-30,30v100C120,212.5,133.5,226,150,226z M280,186H180v-80h100V186z M240,342c0,5.5-4.5,10-10,10
	c-5.5,0-10-4.5-10-10V206h20V342z M310,86c5.5,0,10,4.5,10,10v100c0,5.5-4.5,10-10,10s-10-4.5-10-10V96C300,90.5,304.5,86,310,86z
	 M140,96c0-5.5,4.5-10,10-10c5.5,0,10,4.5,10,10v100c0,5.5-4.5,10-10,10s-10-4.5-10-10V96z"/>
<path class="st0" d="M210,146h40c5.5,0,10-4.5,10-10s-4.5-10-10-10h-40c-5.5,0-10,4.5-10,10S204.5,146,210,146z"/>
<path class="st0" d="M0,462c0,27.6,22.4,50,50,50h340c4.4,0,8.3-2.9,9.6-7.1c1.3-4.2-0.4-8.8-4-11.2c-10.8-7.2-17-18.7-17-31.7
	c0-12.9,6.2-24.5,17-31.7c0,0,0,0,0,0c2.6-1.8,4.4-4.8,4.4-8.2c0,0,0-0.1,0-0.1V10c0-5.5-4.5-10-10-10H50C22.4,0,0,22.4,0,50V462z
	 M366.9,492H50c-16.5,0-30-13.5-30-30c0-16.6,13.4-30,30-30h316.9c-5.4,8.9-8.3,19.3-8.3,30S361.6,483.1,366.9,492z M380,412H80V20
	h300V412z M50,20h10v392H50c-11,0-21.4,3.5-30,10V50C20,33.5,33.5,20,50,20z"/>
<path class="st0" d="M288.6,452H70c-5.5,0-10,4.5-10,10s4.5,10,10,10h218.6c5.5,0,10-4.5,10-10S294.1,452,288.6,452z"/>
</svg>
