<?xml version="1.0" encoding="utf-8"?>
<!-- Generator: Adobe Illustrator 22.0.0, SVG Export Plug-In . SVG Version: 6.00 Build 0)  -->
<svg version="1.1" id="Isolation_Mode" xmlns="http://www.w3.org/2000/svg" xmlns:xlink="http://www.w3.org/1999/xlink" x="0px"
	 y="0px" viewBox="0 0 879.1 222.4" style="enable-background:new 0 0 879.1 222.4;" xml:space="preserve">
<style type="text/css">
	.st0{fill:#EF5350;}
	.st1{enable-background:new    ;}
	.st2{font-family:'ProductSans-Regular';}
	.st3{font-size:123.9958px;}
	.st4{letter-spacing:-1;}
	.st5{fill:#454545;}
</style>
<g>
	<g>
		<path class="st0" d="M0,99.6c0.5-26.4,6.6-49.4,19.3-70.7c2.1-3.6,6.8-10.1,6.8-10.1s7.2-3.6,11-5.2C90.2-9.6,139.5-3.3,184,33.9
			c19.4,16.2,33,36.5,37,62.1c5.2,32.6-16.1,70.1-45.5,84.9c-0.9,0.4-0.9,0.4-1.4,1.2c-22.7,39.3-80.7,56.9-124.8,20
			C17,175,1,140,0,99.6z M108.7,83.1c3.4-1.5,5.6-2.5,7.8-3.5c2-0.9,2.5-2,0.4-3.6c-5.2-4-8.2-9.5-10.4-15.6
			c-1.7-4.9-4.9-8.7-9.2-11.5c-10.9-7-22.2-6.9-33.9-2c-1.6,0.7-4.6,1.6-4.6,1.6s-0.4,3.9-0.1,6.1c1.1,10.6-1.3,20.7-5.9,30
			c-10.9,22.4-14.2,45.6-9.2,70c2.4,11.6,6,22.7,15.2,30.8c18,15.6,38.6,21.8,62.2,16c9.8-2.4,18.4-7,26.7-14
			c-1.6-0.4-2.4-0.6-3.1-0.8c-36.5-7.6-61.4-45.4-51.5-85c0.8-3,2.5-6.7,2.5-6.7s3.3,0.3,6.3,0.9c34.8,7,58.8,26.9,70.7,60.6
			c1.8,5,2.2,5.2,6.2,1.9c23.9-19.3,31.1-56.3,15.5-83C163.5,22.4,100.2,6.2,48.3,30c-2.9,1.3-9.4,4-9.4,4s-0.6,1.5-1.6,3.4
			c-14.6,22.2-19.7,46.7-17.6,72.9c0.7,8.4,2.1,16.7,5.4,24.8c0.4-0.6,0.8-0.8,0.8-1c0.7-19.5,6.7-37.5,14.9-55.1
			c5.1-10.8,7-22.6,4.4-34.6C44.9,43,44.3,40,44.3,40s2.3-0.5,3.5-1.2c9.9-5.5,20.4-8.5,31.7-7.2c14.7,1.7,27.8,7,34.5,21.3
			c4.3,9.2,8.5,17.9,17.4,23.7c1.8,1.5,1.8,1.5,1.8,1.5s-0.8,1.1-1.7,1.5C124.6,82.6,117.6,84.8,108.7,83.1z M104.4,119.7
			c-0.2,9.2,1.9,17.9,6.5,25.8c9.8,16.6,23.3,27.2,43.7,26.1c3-0.1,6.1-1.2,6.1-1.2s0.4-3.5-0.4-6.6c-6.6-24.8-22.1-41.7-45.8-51.1
			c-5.5-2.2-9.1-2-9.1-2S104.4,114.8,104.4,119.7z"/>
		<path class="st0" d="M101.4,57.8c-0.2,3.3-2.1,5.3-5.3,5.4c-3.2,0.1-5.5-1.8-5.6-5.1c-0.1-3.5,1.8-5.7,5.5-5.7
			C99.4,52.4,101,54.6,101.4,57.8z"/>
	</g>
	<g class="st1">
		<path class="st0" d="M324.5,118.1c0,12.4-3.7,22.3-11,29.6c-8.3,8.8-19.1,13.1-32.6,13.1c-12.9,0-23.8-4.5-32.7-13.4
			s-13.4-19.9-13.4-33c0-13.1,4.5-24.1,13.4-33s19.8-13.4,32.7-13.4c6.5,0,12.7,1.2,18.5,3.5c5.8,2.3,10.5,5.6,14.3,9.8l-8.2,8.2
			c-2.7-3.3-6.3-5.9-10.6-7.8c-4.3-1.9-9-2.8-13.9-2.8c-9.7,0-17.9,3.3-24.6,10c-6.6,6.8-9.9,15.3-9.9,25.4s3.3,18.6,9.9,25.4
			c6.7,6.7,14.9,10,24.6,10c8.8,0,16.2-2.5,22.1-7.4c5.9-5,9.3-11.8,10.2-20.5h-32.2v-10.7h43C324.3,113.7,324.5,115.9,324.5,118.1z
			"/>
		<path class="st0" d="M343.3,158.9h-11.4V98.1h10.9v9.9h0.5c1.2-3.2,3.5-6,7.1-8.2c3.6-2.3,7.1-3.4,10.6-3.4c3.3,0,6.1,0.5,8.4,1.5
			l-3.5,11c-1.4-0.6-3.6-0.9-6.7-0.9c-4.3,0-8,1.7-11.2,5.2c-3.2,3.5-4.8,7.5-4.8,12.2V158.9z"/>
		<path class="st0" d="M395.5,96.1c8.4,0,15.1,2.3,20,6.8c4.9,4.5,7.3,10.7,7.3,18.5v37.4h-10.9v-8.4h-0.5
			c-4.7,6.9-11,10.4-18.8,10.4c-6.7,0-12.3-2-16.8-6c-4.5-4-6.8-8.9-6.8-14.9c0-6.3,2.4-11.3,7.1-15c4.8-3.7,11.1-5.6,19-5.6
			c6.8,0,12.4,1.2,16.7,3.7v-2.6c0-4-1.6-7.3-4.7-10.1c-3.1-2.8-6.8-4.2-11-4.2c-6.4,0-11.4,2.7-15.1,8.1l-10-6.3
			C376.5,100.1,384.7,96.1,395.5,96.1z M380.8,140.3c0,3,1.3,5.5,3.8,7.4c2.5,2,5.5,3,8.9,3c4.8,0,9.1-1.8,12.8-5.3
			c3.8-3.6,5.6-7.7,5.6-12.5c-3.6-2.8-8.5-4.2-14.9-4.2c-4.6,0-8.5,1.1-11.6,3.3C382.3,134.2,380.8,137,380.8,140.3z"/>
		<path class="st0" d="M456.2,96.1c8.4,0,15.1,2.3,20,6.8c4.9,4.5,7.3,10.7,7.3,18.5v37.4h-10.9v-8.4H472
			c-4.7,6.9-11,10.4-18.8,10.4c-6.7,0-12.3-2-16.8-6c-4.5-4-6.8-8.9-6.8-14.9c0-6.3,2.4-11.3,7.1-15c4.8-3.7,11.1-5.6,19-5.6
			c6.8,0,12.4,1.2,16.7,3.7v-2.6c0-4-1.6-7.3-4.7-10.1c-3.1-2.8-6.8-4.2-11-4.2c-6.4,0-11.4,2.7-15.1,8.1l-10-6.3
			C437.1,100.1,445.3,96.1,456.2,96.1z M441.4,140.3c0,3,1.3,5.5,3.8,7.4c2.5,2,5.5,3,8.9,3c4.8,0,9.1-1.8,12.8-5.3
			c3.8-3.6,5.6-7.7,5.6-12.5c-3.6-2.8-8.5-4.2-14.9-4.2c-4.6,0-8.5,1.1-11.6,3.3C442.9,134.2,441.4,137,441.4,140.3z"/>
		<path class="st0" d="M494.3,98.1h10.9v8.4h0.5c1.7-3,4.4-5.5,8-7.4c3.6-2,7.3-3,11.2-3c7.4,0,13.2,2.1,17.2,6.4
			c4,4.3,6,10.3,6,18.2v38.2h-11.4v-37.4c-0.2-9.9-5.3-14.9-15-14.9c-4.5,0-8.4,1.8-11.4,5.5c-3.1,3.7-4.6,8.1-4.6,13.2v33.6h-11.4
			V98.1z"/>
		<path class="st0" d="M582,96.1c8.4,0,15.1,2.3,20,6.8c4.9,4.5,7.3,10.7,7.3,18.5v37.4h-10.9v-8.4h-0.5c-4.7,6.9-11,10.4-18.8,10.4
			c-6.7,0-12.3-2-16.8-6c-4.5-4-6.8-8.9-6.8-14.9c0-6.3,2.4-11.3,7.1-15c4.8-3.7,11.1-5.6,19-5.6c6.8,0,12.4,1.2,16.7,3.7v-2.6
			c0-4-1.6-7.3-4.7-10.1c-3.1-2.8-6.8-4.2-11-4.2c-6.4,0-11.4,2.7-15.1,8.1l-10-6.3C563,100.1,571.2,96.1,582,96.1z M567.3,140.3
			c0,3,1.3,5.5,3.8,7.4c2.5,2,5.5,3,8.9,3c4.8,0,9.1-1.8,12.8-5.3c3.8-3.6,5.6-7.7,5.6-12.5c-3.6-2.8-8.5-4.2-14.9-4.2
			c-4.6,0-8.5,1.1-11.6,3.3C568.8,134.2,567.3,137,567.3,140.3z"/>
	</g>
	<text transform="matrix(1 0 0 1 612.7051 158.8713)" class="st2 st3 st4"> </text>
	<g class="st1">
		<path class="st5" d="M642.4,70.1h16.7v35.5h37.3V70.1h16.7v88.8h-16.7v-37.4h-37.3v37.4h-16.7V70.1z"/>
		<path class="st5" d="M761.5,160.9c-5.2,0-9.9-0.8-14.2-2.5c-4.3-1.7-7.9-4.2-10.8-7.4c-3-3.2-5.3-7.1-6.9-11.7
			c-1.7-4.6-2.5-9.8-2.5-15.7V70.1h16.7v54.4c0,3,0.4,5.7,1.1,8.2c0.7,2.5,1.9,4.6,3.3,6.4c1.5,1.8,3.3,3.2,5.6,4.3
			c2.2,1,4.8,1.5,7.7,1.5c3,0,5.6-0.5,7.8-1.5c2.2-1,4.1-2.5,5.6-4.3c1.5-1.8,2.6-4,3.3-6.4s1.1-5.2,1.1-8.2V70.1h16.7v53.4
			c0,5.5-0.8,10.6-2.4,15.2c-1.6,4.6-3.9,8.5-6.9,11.8c-3,3.3-6.7,5.8-10.9,7.6C771.6,159.9,766.8,160.9,761.5,160.9z"/>
		<path class="st5" d="M810,70.1h34.7c3.8,0,7.4,0.6,10.7,1.8c3.3,1.2,6.2,2.9,8.6,5c2.4,2.1,4.4,4.6,5.8,7.4
			c1.4,2.8,2.1,5.8,2.1,9.1c0,4.7-1.1,8.7-3.4,11.8c-2.3,3.2-5.1,5.6-8.5,7.3v1c4.5,1.7,8.2,4.2,11,7.8c2.8,3.5,4.2,7.9,4.2,13.1
			c0,3.8-0.8,7.2-2.3,10.2c-1.5,3-3.6,5.6-6.3,7.8c-2.6,2.2-5.7,3.8-9.2,5c-3.5,1.2-7.3,1.7-11.3,1.7h-36V70.1z M843.5,106.3
			c3.9,0,6.9-1.1,9-3.2c2.1-2.1,3.2-4.6,3.2-7.5c0-2.9-1-5.4-3.1-7.4c-2.1-2.1-4.9-3.1-8.6-3.1h-17.2v21.2H843.5z M845.3,143.5
			c4.2,0,7.4-1.1,9.7-3.2c2.2-2.1,3.3-4.8,3.3-8.1c0-3.3-1.1-6.1-3.4-8.2c-2.3-2.2-5.6-3.3-10.1-3.3h-18.1v22.8H845.3z"/>
	</g>
</g>
</svg>
