<?xml version="1.0" encoding="utf-8"?>
<!-- Generator: Adobe Illustrator 22.0.0, SVG Export Plug-In . SVG Version: 6.00 Build 0)  -->
<svg version="1.1" id="Layer_1" xmlns="http://www.w3.org/2000/svg" xmlns:xlink="http://www.w3.org/1999/xlink" x="0px" y="0px"
	 viewBox="0 0 454.2 489.8" style="enable-background:new 0 0 454.2 489.8;" xml:space="preserve">
<style type="text/css">
	.st0{fill:#454545;}
</style>
<g>
	<g>
		<path class="st0" d="M444.3,121.3H292.7V9.9c0-5.5-4.4-9.9-9.9-9.9H9.9C4.4,0,0,4.4,0,9.9v470c0,5.5,4.4,9.9,9.9,9.9h272.9h161.5
			c5.5,0,9.9-4.4,9.9-9.9V131.2C454.2,125.7,449.8,121.3,444.3,121.3z M272.9,131.2v338.9H19.8V19.8h253.1V131.2L272.9,131.2z
			 M434.4,470H292.7V141h141.7V470z"/>
		<path class="st0" d="M331.3,191.3h64.5c5.5,0,9.9-4.4,9.9-9.9s-4.4-9.9-9.9-9.9h-64.5c-5.5,0-9.9,4.4-9.9,9.9
			C321.4,186.8,325.8,191.3,331.3,191.3z"/>
		<path class="st0" d="M331.3,241h64.5c5.5,0,9.9-4.4,9.9-9.9s-4.4-9.9-9.9-9.9h-64.5c-5.5,0-9.9,4.4-9.9,9.9S325.8,241,331.3,241z"
			/>
		<path class="st0" d="M331.3,290.6h64.5c5.5,0,9.9-4.4,9.9-9.9s-4.4-9.9-9.9-9.9h-64.5c-5.5,0-9.9,4.4-9.9,9.9
			S325.8,290.6,331.3,290.6z"/>
		<path class="st0" d="M331.3,340.3h64.5c5.5,0,9.9-4.4,9.9-9.9s-4.4-9.9-9.9-9.9h-64.5c-5.5,0-9.9,4.4-9.9,9.9
			S325.8,340.3,331.3,340.3z"/>
		<path class="st0" d="M331.3,389.9h64.5c5.5,0,9.9-4.4,9.9-9.9s-4.4-9.9-9.9-9.9h-64.5c-5.5,0-9.9,4.4-9.9,9.9
			C321.4,385.4,325.8,389.9,331.3,389.9z"/>
		<path class="st0" d="M331.3,439.6h64.5c5.5,0,9.9-4.4,9.9-9.9s-4.4-9.9-9.9-9.9h-64.5c-5.5,0-9.9,4.4-9.9,9.9
			S325.8,439.6,331.3,439.6z"/>
		<path class="st0" d="M65.7,97c5.5,0,9.9-4.4,9.9-9.9V65.2c0-5.5-4.4-9.9-9.9-9.9s-9.9,4.4-9.9,9.9v21.9C55.8,92.6,60.2,97,65.7,97
			z"/>
		<path class="st0" d="M119.5,97c5.5,0,9.9-4.4,9.9-9.9V65.2c0-5.5-4.4-9.9-9.9-9.9s-9.9,4.4-9.9,9.9v21.9
			C109.6,92.6,114,97,119.5,97z"/>
		<path class="st0" d="M173.2,97c5.5,0,9.9-4.4,9.9-9.9V65.2c0-5.5-4.4-9.9-9.9-9.9s-9.9,4.4-9.9,9.9v21.9
			C163.3,92.6,167.8,97,173.2,97z"/>
		<path class="st0" d="M227,97c5.5,0,9.9-4.4,9.9-9.9V65.2c0-5.5-4.4-9.9-9.9-9.9s-9.9,4.4-9.9,9.9v21.9C217.1,92.6,221.5,97,227,97
			z"/>
		<path class="st0" d="M65.7,164.8c5.5,0,9.9-4.4,9.9-9.9v-22c0-5.5-4.4-9.9-9.9-9.9s-9.9,4.4-9.9,9.9v22
			C55.8,160.3,60.2,164.8,65.7,164.8z"/>
		<path class="st0" d="M119.5,164.8c5.5,0,9.9-4.4,9.9-9.9v-22c0-5.5-4.4-9.9-9.9-9.9s-9.9,4.4-9.9,9.9v22
			C109.6,160.3,114,164.8,119.5,164.8z"/>
		<path class="st0" d="M173.2,164.8c5.5,0,9.9-4.4,9.9-9.9v-22c0-5.5-4.4-9.9-9.9-9.9s-9.9,4.4-9.9,9.9v22
			C163.3,160.3,167.8,164.8,173.2,164.8z"/>
		<path class="st0" d="M227,164.8c5.5,0,9.9-4.4,9.9-9.9v-22c0-5.5-4.4-9.9-9.9-9.9s-9.9,4.4-9.9,9.9v22
			C217.1,160.3,221.5,164.8,227,164.8z"/>
		<path class="st0" d="M65.7,232.5c5.5,0,9.9-4.4,9.9-9.9v-21.9c0-5.5-4.4-9.9-9.9-9.9s-9.9,4.4-9.9,9.9v21.9
			C55.8,228.1,60.2,232.5,65.7,232.5z"/>
		<path class="st0" d="M119.5,232.5c5.5,0,9.9-4.4,9.9-9.9v-21.9c0-5.5-4.4-9.9-9.9-9.9s-9.9,4.4-9.9,9.9v21.9
			C109.6,228.1,114,232.5,119.5,232.5z"/>
		<path class="st0" d="M173.2,232.5c5.5,0,9.9-4.4,9.9-9.9v-21.9c0-5.5-4.4-9.9-9.9-9.9s-9.9,4.4-9.9,9.9v21.9
			C163.3,228.1,167.8,232.5,173.2,232.5z"/>
		<path class="st0" d="M227,232.5c5.5,0,9.9-4.4,9.9-9.9v-21.9c0-5.5-4.4-9.9-9.9-9.9s-9.9,4.4-9.9,9.9v21.9
			C217.1,228.1,221.5,232.5,227,232.5z"/>
		<path class="st0" d="M65.7,300.3c5.5,0,9.9-4.4,9.9-9.9v-21.9c0-5.5-4.4-9.9-9.9-9.9s-9.9,4.4-9.9,9.9v21.9
			C55.8,295.8,60.2,300.3,65.7,300.3z"/>
		<path class="st0" d="M119.5,300.3c5.5,0,9.9-4.4,9.9-9.9v-21.9c0-5.5-4.4-9.9-9.9-9.9s-9.9,4.4-9.9,9.9v21.9
			C109.6,295.8,114,300.3,119.5,300.3z"/>
		<path class="st0" d="M173.2,300.3c5.5,0,9.9-4.4,9.9-9.9v-21.9c0-5.5-4.4-9.9-9.9-9.9s-9.9,4.4-9.9,9.9v21.9
			C163.3,295.8,167.8,300.3,173.2,300.3z"/>
		<path class="st0" d="M227,300.3c5.5,0,9.9-4.4,9.9-9.9v-21.9c0-5.5-4.4-9.9-9.9-9.9s-9.9,4.4-9.9,9.9v21.9
			C217.1,295.8,221.5,300.3,227,300.3z"/>
		<path class="st0" d="M65.7,368c5.5,0,9.9-4.4,9.9-9.9v-21.9c0-5.5-4.4-9.9-9.9-9.9s-9.9,4.4-9.9,9.9v21.9
			C55.8,363.6,60.2,368,65.7,368z"/>
		<path class="st0" d="M119.5,368c5.5,0,9.9-4.4,9.9-9.9v-21.9c0-5.5-4.4-9.9-9.9-9.9s-9.9,4.4-9.9,9.9v21.9
			C109.6,363.6,114,368,119.5,368z"/>
		<path class="st0" d="M173.2,368c5.5,0,9.9-4.4,9.9-9.9v-21.9c0-5.5-4.4-9.9-9.9-9.9s-9.9,4.4-9.9,9.9v21.9
			C163.3,363.6,167.8,368,173.2,368z"/>
		<path class="st0" d="M227,368c5.5,0,9.9-4.4,9.9-9.9v-21.9c0-5.5-4.4-9.9-9.9-9.9s-9.9,4.4-9.9,9.9v21.9
			C217.1,363.6,221.5,368,227,368z"/>
		<path class="st0" d="M65.7,435.8c5.5,0,9.9-4.4,9.9-9.9v-22c0-5.5-4.4-9.9-9.9-9.9s-9.9,4.4-9.9,9.9v22
			C55.8,431.3,60.2,435.8,65.7,435.8z"/>
		<path class="st0" d="M119.5,435.8c5.5,0,9.9-4.4,9.9-9.9v-22c0-5.5-4.4-9.9-9.9-9.9s-9.9,4.4-9.9,9.9v22
			C109.6,431.3,114,435.8,119.5,435.8z"/>
		<path class="st0" d="M173.2,435.8c5.5,0,9.9-4.4,9.9-9.9v-22c0-5.5-4.4-9.9-9.9-9.9s-9.9,4.4-9.9,9.9v22
			C163.3,431.3,167.8,435.8,173.2,435.8z"/>
		<path class="st0" d="M227,435.8c5.5,0,9.9-4.4,9.9-9.9v-22c0-5.5-4.4-9.9-9.9-9.9s-9.9,4.4-9.9,9.9v22
			C217.1,431.3,221.5,435.8,227,435.8z"/>
	</g>
</g>
</svg>
